<?xml version="1.0" standalone="no"?><!DOCTYPE svg PUBLIC "-//W3C//DTD SVG 1.1//EN"
  "http://www.w3.org/Graphics/SVG/1.1/DTD/svg11.dtd">
<svg t="1691632608010" class="icon" viewBox="0 0 1024 1024" version="1.1" xmlns="http://www.w3.org/2000/svg"
     p-id="12949" width="32" height="32" xmlns:xlink="http://www.w3.org/1999/xlink">
  <path
    d="M454.613333 96.682667l-110.122666 223.146666-246.272 35.797334a64 64 0 0 0-35.456 109.141333l178.176 173.696-42.069334 245.290667a64 64 0 0 0 6.442667 40.576l3.114667 5.333333a64 64 0 0 0 83.328 21.546667L512 835.413333l220.245333 115.797334a64 64 0 0 0 92.885334-67.456l-42.069334-245.290667 178.176-173.653333a64 64 0 0 0-35.456-109.226667l-246.272-35.754667-110.08-223.146666a64 64 0 0 0-114.816 0zM512 173.226667l91.008 184.362666 3.328 6.144a85.333333 85.333333 0 0 0 60.928 40.533334l203.434667 29.525333-147.2 143.573333-4.821334 5.077334a85.333333 85.333333 0 0 0-19.712 70.442666l34.730667 202.624-201.813333-106.069333-4.778667-2.133333a42.666667 42.666667 0 0 0-34.986667 2.133333L290.304 855.466667l34.773333-202.624 0.896-6.912a85.333333 85.333333 0 0 0-25.429333-68.608l-147.242667-143.573334 203.52-29.525333a85.333333 85.333333 0 0 0 64.213334-46.677333L512 173.226667z"
    fill="#111111" p-id="12950"></path>
</svg>
