<?xml version="1.0" standalone="no"?><!DOCTYPE svg PUBLIC "-//W3C//DTD SVG 1.1//EN"
  "http://www.w3.org/Graphics/SVG/1.1/DTD/svg11.dtd">
<svg t="1691632538443" class="icon" viewBox="0 0 1024 1024" version="1.1" xmlns="http://www.w3.org/2000/svg"
     p-id="10667" width="48" height="48" xmlns:xlink="http://www.w3.org/1999/xlink">
  <path
    d="M388.06 614.48c0 83.99 68.33 152.32 152.32 152.32h206.58c84.47 0 153.19-68.72 153.19-153.19V480.22c0-17.65-14.29-31.96-31.93-32l-448.01-0.95h-0.15l-291.96-0.62h-0.07c-17.64 0-31.96 14.28-32 31.93-0.04 17.67 14.26 32.03 31.93 32.07l260.11 0.55v103.28z m64-103.14l384.09 0.81v101.46c0 49.18-40.01 89.19-89.19 89.19H540.38c-48.7 0-88.32-39.62-88.32-88.32V511.34zM598.52 320.23c0 17.67 14.33 32 32 32s32-14.33 32-32c0-7.16 1.17-9.11 5.05-15.58 5.64-9.41 14.17-23.62 14.17-48.5s-8.53-39.1-14.17-48.5c-3.88-6.47-5.05-8.42-5.05-15.58s1.17-9.11 5.05-15.58c5.64-9.41 14.17-23.62 14.17-48.5 0-17.67-14.33-32-32-32s-32 14.33-32 32c0 7.16-1.17 9.11-5.05 15.58-5.64 9.41-14.17 23.62-14.17 48.5s8.53 39.1 14.17 48.5c3.88 6.47 5.05 8.42 5.05 15.58s-1.17 9.11-5.05 15.58c-5.64 9.4-14.17 23.62-14.17 48.5zM726.55 383.78c0 17.67 14.33 32 32 32s32-14.33 32-32c0-7.14 1.17-9.08 5.04-15.54 5.64-9.4 14.16-23.6 14.16-48.46s-8.52-39.07-14.16-48.46c-3.87-6.45-5.04-8.4-5.04-15.54s1.17-9.08 5.04-15.54c5.64-9.4 14.16-23.6 14.16-48.46 0-17.67-14.33-32-32-32s-32 14.33-32 32c0 7.14-1.17 9.08-5.04 15.54-5.64 9.4-14.16 23.6-14.16 48.46s8.52 39.07 14.16 48.46c3.87 6.45 5.04 8.4 5.04 15.54s-1.17 9.08-5.04 15.54c-5.64 9.39-14.16 23.6-14.16 48.46zM469.73 383.78c0 17.67 14.33 32 32 32s32-14.33 32-32c0-7.14 1.17-9.08 5.04-15.54 5.64-9.4 14.16-23.6 14.16-48.46s-8.52-39.07-14.16-48.46c-3.87-6.45-5.04-8.4-5.04-15.54s1.17-9.08 5.04-15.54c5.64-9.4 14.16-23.6 14.16-48.46 0-17.67-14.33-32-32-32s-32 14.33-32 32c0 7.14-1.17 9.08-5.04 15.54-5.64 9.4-14.16 23.6-14.16 48.46s8.52 39.07 14.16 48.46c3.87 6.45 5.04 8.4 5.04 15.54s-1.17 9.08-5.04 15.54c-5.64 9.39-14.16 23.6-14.16 48.46zM905.18 923.88c-11.36-23.64-12.73-47.64-13.93-68.81-1.07-18.85-2-35.13-9.54-47.97-8.84-15.04-24.58-22.04-49.54-22.04-13.63 0-24.24 3.99-31.54 11.85-14.16 15.24-12.26 40.77-10.44 65.46 1.51 20.41 3.07 41.52-5.15 50.37-3.41 3.68-8.94 5.46-16.89 5.46-8 0-13.57-1.8-17.03-5.51-8.28-8.88-6.82-29.97-5.41-50.38 1.71-24.67 3.48-50.17-10.74-65.4-7.34-7.87-17.99-11.86-31.65-11.86-13.59 0-24.17 3.99-31.44 11.84-14.1 15.25-12.08 40.8-10.14 65.52 1.61 20.42 3.27 41.54-4.89 50.37-3.37 3.65-8.85 5.42-16.75 5.42-7.95 0-13.47-1.79-16.88-5.46-8.22-8.86-6.66-29.97-5.15-50.39 1.83-24.69 3.72-50.22-10.44-65.46-7.3-7.85-17.9-11.84-31.51-11.84h-0.04c-13.84 0.01-24.58 4.01-31.92 11.89-13.92 14.95-12.18 39.75-10.49 63.73 1.43 20.25 2.9 41.2-5.55 50.82-3.6 4.1-9.29 6.32-17.41 6.81-10.96 0.66-14.42-2.79-15.56-3.93-7.59-7.55-6.45-28.31-5.45-46.63 1.31-24.01 2.67-48.84-11.34-63.65-7.15-7.55-17.34-11.38-30.3-11.38-23.89 0-39.12 6.63-47.92 20.87-7.53 12.19-8.78 27.59-10.23 45.44-1.61 19.92-3.44 42.5-14.77 64.72-2.51 4.92-0.55 10.94 4.37 13.45s10.94 0.55 13.45-4.37c13.13-25.75 15.21-51.5 16.89-72.19 1.24-15.27 2.31-28.45 7.3-36.54 3.28-5.3 9.75-11.39 30.91-11.39 7.35 0 12.51 1.68 15.78 5.13 8.1 8.56 6.98 29.02 5.9 48.8-1.29 23.62-2.63 48.04 11.31 61.91 6.56 6.53 15.66 9.83 27.08 9.83 1.23 0 2.49-0.04 3.78-0.12 13.54-0.81 24.05-5.38 31.25-13.58 13.95-15.9 12.18-41.07 10.47-65.42-1.39-19.72-2.82-40.1 5.17-48.69 3.46-3.71 9.12-5.52 17.3-5.52h0.03c7.93 0 13.45 1.78 16.85 5.45 8.22 8.85 6.66 29.96 5.14 50.37-1.83 24.7-3.72 50.23 10.44 65.48 7.3 7.86 17.92 11.85 31.54 11.85 13.59 0 24.17-3.99 31.44-11.84 14.1-15.25 12.08-40.8 10.14-65.52-1.61-20.42-3.27-41.54 4.89-50.37 3.37-3.65 8.85-5.42 16.75-5.42 8 0 13.57 1.8 17.03 5.51 8.28 8.88 6.82 29.97 5.41 50.38-1.71 24.67-3.48 50.17 10.74 65.4 7.34 7.87 17.99 11.86 31.65 11.86 13.63 0 24.24-3.99 31.54-11.85 14.16-15.24 12.27-40.77 10.44-65.46-1.51-20.41-3.08-41.52 5.15-50.37 3.41-3.68 8.94-5.46 16.89-5.46 36.21 0 37.12 16.03 39.12 51.15 1.25 21.89 2.8 49.12 15.88 76.34 2.39 4.98 8.37 7.07 13.34 4.68 4.97-2.39 7.07-8.36 4.67-13.34z"
    p-id="10668" fill="#111111"></path>
</svg>
