<svg version="1.1" xmlns="http://www.w3.org/2000/svg">
  <symbol id="pour" viewBox="0 0 1024 1024">
    <path
      d="M727.04 453.973333L413.44 140.373333l-37.12-37.12a32.170667 32.170667 0 0 0-45.226667 0c-12.373333 12.373333-12.373333 32.853333 0 45.226667l37.12 37.12L128 425.813333c-27.306667 27.306667-41.813333 55.04-42.666667 82.773334-0.853333 29.44 13.653333 58.88 42.666667 88.32L299.093333 768c57.173333 56.746667 114.346667 56.746667 171.093334 0l256.853333-256.853333c8.533333-8.533333 12.373333-20.053333 11.52-31.146667a40.490667 40.490667 0 0 0-11.52-26.026667zM682.666667 970.666667H128c-17.493333 0-32-14.506667-32-32s14.506667-32 32-32h554.666667c17.493333 0 32 14.506667 32 32s-14.506667 32-32 32zM825.6 630.613333a29.866667 29.866667 0 0 0-42.666667 0c-13.226667 14.506667-78.933333 88.32-78.933333 144.64 0 55.466667 44.8 100.266667 100.266667 100.266667s100.266667-44.8 100.266666-100.266667c0-55.893333-65.706667-130.133333-78.933333-144.64z"
    />
  </symbol>
  <symbol id="wash" viewBox="0 0 1024 1024">
    <path
      d="M808.606897 88.275862c-30.013793 1.765517-61.793103 22.951724-75.917242 58.262069-40.606897 111.227586-143.006897 243.641379-227.751724 330.151724H52.965517v35.310345c0 3.531034 5.296552 423.724138 459.034483 423.724138s459.034483-420.193103 459.034483-423.724138v-35.310345H760.937931c28.248276-65.324138 75.917241-144.772414 141.241379-211.862069l-1.765517 3.531035c28.248276-22.951724 40.606897-61.793103 31.77931-90.04138s-28.248276-49.434483-47.668965-63.55862c-21.186207-15.889655-45.903448-28.248276-75.917241-26.482759zM300.137931 123.586207c-19.42069 0-35.310345 15.889655-35.310345 35.310345s15.889655 35.310345 35.310345 35.310345 35.310345-15.889655 35.310345-35.310345-15.889655-35.310345-35.310345-35.310345z m512 35.310345c5.296552 0 19.42069 3.531034 30.013793 12.35862 10.593103 8.827586 19.42069 19.42069 21.186207 26.482759 1.765517 5.296552 5.296552 5.296552-8.827586 15.889655l-1.765517 1.765517-1.765518 1.765518C769.765517 300.137931 715.034483 397.241379 685.02069 476.689655h-82.979311c75.917241-86.510345 157.131034-197.737931 197.737931-303.668965 5.296552-15.889655 7.062069-14.124138 12.358621-14.124138z m-370.758621 70.620689c-19.42069 0-35.310345 15.889655-35.310344 35.310345s15.889655 35.310345 35.310344 35.310345 35.310345-15.889655 35.310345-35.310345-15.889655-35.310345-35.310345-35.310345z m-176.551724 105.931035c-19.42069 0-35.310345 15.889655-35.310345 35.310345s15.889655 35.310345 35.310345 35.310345 35.310345-15.889655 35.310345-35.310345-15.889655-35.310345-35.310345-35.310345z"
    />
  </symbol>
</svg>
